<svg xmlns="http://www.w3.org/2000/svg" width="26.222" height="26.2" viewBox="0 0 26.222 26.2">
  <g id="company_icon" transform="translate(-102.465 -673.974)">
    <path id="Path_162" data-name="Path 162" d="M23.52,13.887,11.649,9.435c-.6-.223-1.088-.03-1.2.487a1.613,1.613,0,0,0-.024.381V33.727c0,.239-.068.3-.294.272a4.005,4.005,0,0,0-.511,0,.767.767,0,0,0-.3,1.482c.027,0,.065,0,.073.054H24.238v-20.6C24.243,14.3,24.118,14.113,23.52,13.887Zm-4.651,3.22h1.509a.767.767,0,0,1,0,1.534H18.869a.767.767,0,0,1,0-1.534Zm0,3.076c.522-.014,1.042-.014,1.561,0a.748.748,0,0,1,.74.762.759.759,0,0,1-.77.756H18.866a.764.764,0,0,1,0-1.528Zm0,3.07H20.43a.748.748,0,0,1,.748.775.759.759,0,0,1-.748.753H18.869a.767.767,0,0,1,0-1.531Zm0,3.073H20.43a.748.748,0,0,1,.748.778.756.756,0,0,1-.748.751H18.869a.767.767,0,0,1,0-1.531ZM14.246,17.11h1.561a.767.767,0,0,1,0,1.531H14.27a.767.767,0,0,1,0-1.531Zm1.542,4.6H14.254a.767.767,0,0,1,0-1.531h1.537a.767.767,0,1,1,0,1.531Zm.772,2.3a.753.753,0,0,1-.781.77H14.27a.767.767,0,1,1,0-1.531H15.78a.759.759,0,0,1,.781.761Zm-2.314,2.312h1.561a.751.751,0,0,1,.753.77.759.759,0,0,1-.764.762H14.259a.767.767,0,0,1,0-1.531ZM16.356,34H13.7c-.16,0-.212-.035-.209-.207V30.213a.762.762,0,0,1,.829-.816h2.045c.182,0,.2.068.2.22v4.191C16.568,33.972,16.519,34,16.356,34Zm4.623,0H18.26c-.147,0-.182-.041-.179-.185V29.571c0-.136.024-.19.177-.188h2.1a.756.756,0,0,1,.8.816V33.83c.022.152-.03.169-.166.169Z" transform="translate(93.641 664.631)" fill="#176eff"/>
    <path id="Path_163" data-name="Path 163" d="M79.44,56.726h-.307c-.231.035-.288-.052-.288-.272V43.892c0-.609-.136-.8-.707-.993l-4.974-1.675L71.17,40.56V58.27h8.7a.653.653,0,0,0,.563-.563V57.3a.9.9,0,0,0-1-.571ZM73.533,45.978H76.5a.767.767,0,1,1,0,1.534H73.533a.77.77,0,1,1,0-1.534Zm.016,3.073h2.915a.771.771,0,1,1-.005,1.534c-.519,0-.974,0-1.458,0h-1.46a.77.77,0,1,1,0-1.534Zm3.579,7.675c-.392-.016-.783-.014-1.175,0-.152,0-.179-.052-.179-.188v-2.66c0-.2-.054-.239-.239-.234-.375.016-.751,0-1.126,0-.15,0-.182.044-.179.185v2.687c0,.166-.044.212-.209.207q-.574-.016-1.15,0c-.144,0-.185-.038-.182-.182V52.959a.767.767,0,0,1,.835-.846h2.943a.761.761,0,0,1,.829.816v3.579C77.319,56.677,77.3,56.742,77.129,56.726Z" transform="translate(48.251 641.904)" fill="#176eff"/>
  </g>
</svg>
