<svg xmlns="http://www.w3.org/2000/svg" xmlns:xlink="http://www.w3.org/1999/xlink" width="375" height="812" viewBox="0 0 375 812">
  <defs>
    <clipPath id="clip-Create_account">
      <rect width="375" height="812"/>
    </clipPath>
  </defs>
  <g id="Create_account" data-name="Create account" clip-path="url(#clip-Create_account)">
    <rect width="375" height="812" fill="#fff"/>
    <path id="Path_155" data-name="Path 155" d="M-1083,657h376v384l-376,61Z" transform="translate(1083 -679)" fill="#ffc400"/>
    <path id="Path_156" data-name="Path 156" d="M-1083,657h376v384l-376,61Z" transform="translate(1083 -687)" fill="#176eff"/>
    <g id="NFC_image" data-name="NFC image">
      <path id="Path_3265" data-name="Path 3265" d="M-1396,723.667-1381,744l12,17.667L-1356.333,776l-33,3.333-10,13-2.333,31.333,2.333,98,2,15.333,246,73.667L-1151.667,828-1305,721.333l-49.333-14Z" transform="translate(1528 -657)" opacity="0.26"/>
      <g id="NFC" transform="translate(124.673 46.667)">
        <path id="Path_3258" data-name="Path 3258" d="M621.528,419.136v33.07a1.137,1.137,0,0,1-1.137,1.14h-6.073a1.137,1.137,0,0,1-1.1-.813l-4.528-15.253v14.926a1.137,1.137,0,0,1-1.137,1.14H602.14a1.136,1.136,0,0,1-1.14-1.14v-33.07A1.136,1.136,0,0,1,602.14,418h5.719a1.137,1.137,0,0,1,1.1.787l4.9,15.132V419.136A1.137,1.137,0,0,1,614.977,418h5.41a1.137,1.137,0,0,1,1.14,1.137Z" transform="translate(-579.398 -288.529)" fill="#fff"/>
        <path id="Path_3259" data-name="Path 3259" d="M674.047,418h13.3a1.137,1.137,0,0,1,1.137,1.137v4.8a1.137,1.137,0,0,1-1.137,1.137h-5.252v6.705h4.543a1.14,1.14,0,0,1,1.137,1.137v4.451a1.14,1.14,0,0,1-1.137,1.14h-4.543v13.7a1.137,1.137,0,0,1-1.137,1.14h-6.908a1.137,1.137,0,0,1-1.137-1.14v-33.07A1.137,1.137,0,0,1,674.047,418Z" transform="translate(-624.859 -288.53)" fill="#fff"/>
        <path id="Path_3260" data-name="Path 3260" d="M745.889,432.112h-6.919a1.137,1.137,0,0,1-1.137-1.137v-5.006a11.041,11.041,0,0,0-.294-3.347,1.268,1.268,0,0,0-1.3-.662,1.359,1.359,0,0,0-1.442.806,12.227,12.227,0,0,0-.305,3.494v16.423a11.372,11.372,0,0,0,.305,3.362,1.312,1.312,0,0,0,1.376.787,1.269,1.269,0,0,0,1.343-.787,12.781,12.781,0,0,0,.316-3.7v-3.31a1.137,1.137,0,0,1,1.137-1.137h6.919a1.137,1.137,0,0,1,1.137,1.137s-.258,6.5-.772,8.026a7.961,7.961,0,0,1-3.428,4.024,11.742,11.742,0,0,1-6.543,1.729,13.448,13.448,0,0,1-6.657-1.471,7.106,7.106,0,0,1-3.472-4.046,26.462,26.462,0,0,1-.853-7.787V429.188a46.375,46.375,0,0,1,.261-5.734,8.036,8.036,0,0,1,1.563-3.678,8.687,8.687,0,0,1,3.6-2.784,14.751,14.751,0,0,1,12,.555,7.438,7.438,0,0,1,3.472,3.914,23.6,23.6,0,0,1,.828,7.294v2.207a1.137,1.137,0,0,1-1.137,1.151Z" transform="translate(-657.974 -287.249)" fill="#fff"/>
        <path id="Path_3261" data-name="Path 3261" d="M646.214,253.4H548.49a6.22,6.22,0,0,0-6.22,6.22v153.3a6.22,6.22,0,0,0,6.22,6.22h97.725a6.22,6.22,0,0,0,6.22-6.22V259.62a6.22,6.22,0,0,0-6.22-6.22Zm-44.02,159.411h-9.688a5,5,0,0,1,0-10h9.688a5,5,0,0,1,0,10Zm43.821-22.827a6.1,6.1,0,0,1-6.095,6.095H554.783a6.1,6.1,0,0,1-6.1-6.095V277.334a6.1,6.1,0,0,1,6.1-6.1h85.138a6.1,6.1,0,0,1,6.095,6.1Z" transform="translate(-542.27 -184.472)" fill="#fff"/>
        <path id="Path_3262" data-name="Path 3262" d="M587.868,143.733l-1.983-3.182a4.686,4.686,0,0,1,1.773-6.621,77.888,77.888,0,0,1,73.633,0,4.686,4.686,0,0,1,1.773,6.621l-1.986,3.182a4.69,4.69,0,0,1-6.205,1.626,64.82,64.82,0,0,0-60.8,0A4.693,4.693,0,0,1,587.868,143.733Z" transform="translate(-569.393 -103.097)" fill="#fff"/>
        <path id="Path_3263" data-name="Path 3263" d="M652.42,79.2a99.538,99.538,0,0,0-99.071,0,4.675,4.675,0,0,0-1.582,6.577l2.027,3.152a4.675,4.675,0,0,0,6.253,1.523,86.436,86.436,0,0,1,85.668,0,4.675,4.675,0,0,0,6.253-1.523l2.027-3.152A4.675,4.675,0,0,0,652.42,79.2Z" transform="translate(-547.803 -66)" fill="#fff"/>
        <path id="Path_3264" data-name="Path 3264" d="M670.308,189.743a55.93,55.93,0,0,0-47.448,0,4.686,4.686,0,0,0-2.074,6.621l1.905,3.24a4.69,4.69,0,0,0,6.014,1.861,42.806,42.806,0,0,1,35.763,0,4.69,4.69,0,0,0,6.014-1.861l1.905-3.24a4.686,4.686,0,0,0-2.078-6.621Z" transform="translate(-591.5 -140.891)" fill="#fff"/>
      </g>
    </g>
  </g>
</svg>
