<svg xmlns="http://www.w3.org/2000/svg" width="24.337" height="24.326" viewBox="0 0 24.337 24.326">
  <path id="Shape_553" data-name="Shape 553" d="M1023.324,1570.917q0,3.392,0,6.783a2.445,2.445,0,0,1-2.566,2.6c-1.348.037-2.7.027-4.045,0a1.331,1.331,0,0,1-1.465-1.5c-.008-1.868,0-3.736,0-5.6,0-1.293-.551-1.834-1.857-1.839-1.489-.005-2.978,0-4.468,0-1.249,0-1.836.574-1.84,1.811-.006,1.789,0,3.578,0,5.368,0,1.375-.4,1.766-1.789,1.768-1.167,0-2.335.007-3.5,0a2.5,2.5,0,0,1-2.781-2.7c-.007-4.483,0-8.965-.007-13.448a2.818,2.818,0,0,1,1.578-2.647c2.966-1.659,5.931-3.319,8.878-5.01a3.193,3.193,0,0,1,3.458.017q4.364,2.513,8.773,4.95a2.892,2.892,0,0,1,1.649,2.784C1023.3,1566.473,1023.324,1568.7,1023.324,1570.917Z" transform="translate(-998.998 -1556.001)" fill="#176eff"/>
</svg>
